HIERARCHY
ROOT hip
{
  OFFSET -6.65587 84.689 72.4528
  CHANNELS 6 Xposition Yposition Zposition Zrotation Xrotation Yrotation
  JOINT abdomen
  {
    OFFSET 0 20.6881 -0.73152
    CHANNELS 3 Zrotation Xrotation Yrotation
    JOINT chest
    {
      OFFSET 0 11.7043 -0.48768
      CHANNELS 3 Zrotation Xrotation Yrotation
      JOINT neck
      {
        OFFSET 0 22.1894 -2.19456
        CHANNELS 3 Zrotation Xrotation Yrotation
        JOINT head
        {
          OFFSET -0.24384 7.07133 1.2192
          CHANNELS 3 Zrotation Xrotation Yrotation
          JOINT leftEye
          {
            OFFSET 4.14528 8.04674 8.04672
            CHANNELS 3 Zrotation Xrotation Yrotation
            End Site
            {
              OFFSET 1 0 0
            }
          }
          JOINT rightEye
          {
            OFFSET -3.6576 8.04674 8.04672
            CHANNELS 3 Zrotation Xrotation Yrotation
            End Site
            {
              OFFSET 1 0 0
            }
          }
        }
      }
      JOINT rCollar
      {
        OFFSET -2.68224 19.2634 -4.8768
        CHANNELS 3 Zrotation Xrotation Yrotation
        JOINT rShldr
        {
          OFFSET -8.77824 -1.95073 1.46304
          CHANNELS 3 Zrotation Xrotation Yrotation
          JOINT rForeArm
          {
            OFFSET -28.1742 -1.7115 0.48768
            CHANNELS 3 Zrotation Xrotation Yrotation
            JOINT rHand
            {
              OFFSET -22.5879 0.773209 7.07136
              CHANNELS 3 Zrotation Xrotation Yrotation
              JOINT rThumb1
              {
                OFFSET -1.2192 -0.487915 3.41376
                CHANNELS 3 Zrotation Xrotation Yrotation
                JOINT rThumb2
                {
                  OFFSET -3.37035 -0.52449 3.41376
                  CHANNELS 3 Zrotation Xrotation Yrotation
                  End Site
                  {
                    OFFSET -1.78271 -1.18214 1.43049
                  }
                }
              }
              JOINT rIndex1
              {
                OFFSET -7.75947 0.938293 5.60832
                CHANNELS 3 Zrotation Xrotation Yrotation
                JOINT rIndex2
                {
                  OFFSET -2.54057 -0.884171 1.56538
                  CHANNELS 3 Zrotation Xrotation Yrotation
                  End Site
                  {
                    OFFSET -1.62519 -0.234802 1.16502
                  }
                }
              }
              JOINT rMid1
              {
                OFFSET -8.24714 1.18213 3.41376
                CHANNELS 3 Zrotation Xrotation Yrotation
                JOINT rMid2
                {
                  OFFSET -3.10165 -0.590103 1.0647
                  CHANNELS 3 Zrotation Xrotation Yrotation
                  End Site
                  {
                    OFFSET -2.48547 -0.328903 0.83742
                  }
                }
              }
              JOINT rRing1
              {
                OFFSET -8.82822 0.546677 1.51678
                CHANNELS 3 Zrotation Xrotation Yrotation
                JOINT rRing2
                {
                  OFFSET -2.60934 -0.819778 -0.0198488
                  CHANNELS 3 Zrotation Xrotation Yrotation
                  End Site
                  {
                    OFFSET -2.33842 -0.294052 0.168128
                  }
                }
              }
              JOINT rPinky1
              {
                OFFSET -8.27202 -0.0477905 -0.4584
                CHANNELS 3 Zrotation Xrotation Yrotation
                JOINT rPinky2
                {
                  OFFSET -1.82734 -0.647385 -0.700984
                  CHANNELS 3 Zrotation Xrotation Yrotation
                  End Site
                  {
                    OFFSET -1.69225 -0.51767 -0.607171
                  }
                }
              }
            }
          }
        }
      }
      JOINT lCollar
      {
        OFFSET 2.68224 19.2634 -4.8768
        CHANNELS 3 Zrotation Xrotation Yrotation
        JOINT lShldr
        {
          OFFSET 8.77824 -1.95073 1.46304
          CHANNELS 3 Zrotation Xrotation Yrotation
          JOINT lForeArm
          {
            OFFSET 28.1742 -1.7115 0.48768
            CHANNELS 3 Zrotation Xrotation Yrotation
            JOINT lHand
            {
              OFFSET 22.5879 0.773209 7.07136
              CHANNELS 3 Zrotation Xrotation Yrotation
              JOINT lThumb1
              {
                OFFSET 1.2192 -0.487915 3.41376
                CHANNELS 3 Zrotation Xrotation Yrotation
                JOINT lThumb2
                {
                  OFFSET 3.37035 -0.52449 3.41376
                  CHANNELS 3 Zrotation Xrotation Yrotation
                  End Site
                  {
                    OFFSET 1.78271 -1.18214 1.43049
                  }
                }
              }
              JOINT lIndex1
              {
                OFFSET 7.75947 0.938293 5.60832
                CHANNELS 3 Zrotation Xrotation Yrotation
                JOINT lIndex2
                {
                  OFFSET 2.54057 -0.884171 1.56538
                  CHANNELS 3 Zrotation Xrotation Yrotation
                  End Site
                  {
                    OFFSET 1.62519 -0.234802 1.16502
                  }
                }
              }
              JOINT lMid1
              {
                OFFSET 8.24714 1.18213 3.41376
                CHANNELS 3 Zrotation Xrotation Yrotation
                JOINT lMid2
                {
                  OFFSET 3.10165 -0.590103 1.0647
                  CHANNELS 3 Zrotation Xrotation Yrotation
                  End Site
                  {
                    OFFSET 2.48547 -0.328903 0.83742
                  }
                }
              }
              JOINT lRing1
              {
                OFFSET 8.82822 0.546677 1.51678
                CHANNELS 3 Zrotation Xrotation Yrotation
                JOINT lRing2
                {
                  OFFSET 2.60934 -0.819778 -0.0198488
                  CHANNELS 3 Zrotation Xrotation Yrotation
                  End Site
                  {
                    OFFSET 2.33842 -0.294052 0.168128
                  }
                }
              }
              JOINT lPinky1
              {
                OFFSET 8.27202 -0.0477905 -0.4584
                CHANNELS 3 Zrotation Xrotation Yrotation
                JOINT lPinky2
                {
                  OFFSET 1.82734 -0.647385 -0.700984
                  CHANNELS 3 Zrotation Xrotation Yrotation
                  End Site
                  {
                    OFFSET 1.69225 -0.51767 -0.607171
                  }
                }
              }
            }
          }
        }
      }
    }
  }
  JOINT rButtock
  {
    OFFSET -8.77824 4.35084 1.2192
    CHANNELS 3 Zrotation Xrotation Yrotation
    JOINT rThigh
    {
      OFFSET 0 -1.70687 -2.19456
      CHANNELS 3 Zrotation Xrotation Yrotation
      JOINT rShin
      {
        OFFSET 0 -36.8199 0.73152
        CHANNELS 3 Zrotation Xrotation Yrotation
        JOINT rFoot
        {
          OFFSET 0.73152 -45.1104 -5.12064
          CHANNELS 3 Zrotation Xrotation Yrotation
          End Site
          {
            OFFSET -1.1221 -3.69964 12.103
          }
        }
      }
    }
  }
  JOINT lButtock
  {
    OFFSET 8.77824 4.35084 1.2192
    CHANNELS 3 Zrotation Xrotation Yrotation
    JOINT lThigh
    {
      OFFSET 0 -1.70687 -2.19456
      CHANNELS 3 Zrotation Xrotation Yrotation
      JOINT lShin
      {
        OFFSET 0 -36.8199 0.73152
        CHANNELS 3 Zrotation Xrotation Yrotation
        JOINT lFoot
        {
          OFFSET -0.73152 -45.1104 -5.12064
          CHANNELS 3 Zrotation Xrotation Yrotation
          End Site
          {
            OFFSET 1.1221 -3.69964 12.103
          }
        }
      }
    }
  }
}
MOTION
Frames:	8
Frame Time:	0.00833333
-2.82218 85.1968 -64.6307 -0.443816 -0.00111774 0.00758099 0.583967 -0.00303823 0.0166886 0.16117 -0.0046852 0.0279253 -1.28145e-014 0 -5.59082e-017 -3.88127e-014 3.18055e-015 -1.80149e-016 -0 0 0 -0 0 0 -6.46197e-015 1.16475e-017 9.93923e-017 -1.3365e-013 -8.69683e-017 -1.98785e-016 -2.33547e-012 7.06481e-013 6.36111e-015 -2.67406e-011 -6.62549e-013 -1.62208e-013 -6.30777e-011 9.66351e-014 -3.33958e-013 -1.08942e-010 1.65389e-013 -5.87607e-013 -6.30712e-011 9.62118e-014 -3.37139e-013 7.73091 5.47488 0.417314 -6.30783e-011 9.67087e-014 -3.40319e-013 2.90554 0.965183 0.102902 -6.30705e-011 9.64106e-014 -3.40319e-013 10.2786 0.731801 0.0259123 -6.30821e-011 9.74045e-014 -3.30778e-013 2.22167 -0.733487 -0.20892 -6.55884e-015 1.00945e-017 -1.49089e-016 -1.36774e-013 9.93923e-017 -1.98785e-015 -2.33731e-012 -6.90379e-013 -3.18055e-015 -2.67436e-011 7.46933e-013 -1.46306e-013 -6.30829e-011 1.2327e-013 -3.40319e-013 -1.08929e-010 2.09917e-013 -5.81246e-013 -6.30883e-011 1.24042e-013 -3.27597e-013 -7.73091 5.47488 -0.417314 -6.30822e-011 1.23246e-013 -3.40319e-013 -2.90554 0.965183 -0.102902 -6.30892e-011 1.23445e-013 -3.37139e-013 -10.2786 0.731801 -0.0259123 -6.30785e-011 1.26029e-013 -3.33958e-013 -2.22167 -0.733487 0.20892 -2.03217e-016 0 -3.88251e-019 0.940019 -4.56521 -0.0787576 -0.0019132 2.71742 -0.00754394 -0.501069 1.84803 0.0947638 2.03217e-016 0 3.88251e-019 -0.050731 -2.31868 0.0217179 0.00815992 -1.35176 0.0697826 0.492751 3.67058 -0.1308 
-3.02079 84.4871 -65.5126 -0.12199 0.673575 -2.14861 -0.42408 0.559433 0.331108 0.00859141 -0.964451 0.112319 -2.70794 1.59146 -1.77217 3.72225 -2.16175 -2.79491 -0 0 0 -0 0 0 3.30136e-015 4.79506e-014 8.09543e-015 20.798 6.98282 -1.24521 -5.21529 -2.60868 7.86962 0.0279813 3.71229 0.517781 -1.50036e-010 3.73709e-010 -3.74032e-010 -2.63759e-010 6.49544e-010 -6.45588e-010 -1.50031e-010 3.73709e-010 -3.74038e-010 7.73091 5.47488 0.417314 -1.50037e-010 3.73709e-010 -3.74036e-010 2.90554 0.965183 0.102902 -1.50029e-010 3.73708e-010 -3.74038e-010 10.2786 0.731801 0.0259123 -1.5004e-010 3.73709e-010 -3.74027e-010 2.22167 -0.733487 -0.20892 3.20245e-015 4.79508e-014 7.85821e-015 -21.2329 2.34625 1.79174 4.50577 -2.10755 -6.97102 -2.7874e-005 0.117347 -0.0164919 -8.6835e-011 3.19209e-010 2.55514e-010 -1.49213e-010 5.5245e-010 4.41668e-010 -8.68392e-011 3.19211e-010 2.55524e-010 -7.73091 5.47488 -0.417314 -8.68333e-011 3.19211e-010 2.55511e-010 -2.90554 0.965183 -0.102902 -8.68412e-011 3.19211e-010 2.55515e-010 -10.2786 0.731801 -0.0259123 -8.68291e-011 3.19213e-010 2.55514e-010 -2.22167 -0.733487 0.20892 -2.03217e-016 0 -3.88251e-019 0.449641 -5.43489 5.93818 0.0058722 6.60031 0.0722156 -0.87498 -1.2391 -5.08392 2.03217e-016 0 3.88251e-019 -0.0685754 -2.73319 -1.94676 0.00180523 2.05258 -0.00796466 0.771295 0.416098 4.66737 
-3.02442 84.4846 -65.5183 0.272983 1.38377 -4.42966 -1.4963 1.15648 0.663138 -0.14944 -1.97952 0.201644 -5.46453 3.26799 -3.65073 7.43048 -4.43317 -5.76299 -0 0 0 -0 0 0 1.38497e-014 1.00353e-013 2.10246e-014 43.1245 14.3481 -2.62751 -9.95595 -5.2015 16.2391 -0.0160144 7.64165 1.07326 -2.66573e-010 8.08777e-010 -7.84947e-010 -4.7014e-010 1.4054e-009 -1.3546e-009 -2.66569e-010 8.08777e-010 -7.84957e-010 7.73091 5.47488 0.417314 -2.66575e-010 8.08775e-010 -7.84949e-010 2.90554 0.965183 0.102902 -2.66565e-010 8.08775e-010 -7.84953e-010 10.2786 0.731801 0.0259123 -2.66576e-010 8.08775e-010 -7.84941e-010 2.22167 -0.733487 -0.20892 1.37481e-014 1.00355e-013 2.07978e-014 -43.8415 4.81211 3.70056 8.71616 -4.2318 -14.371 1.60773e-005 0.240536 -0.0338051 -1.3577e-010 6.06054e-010 5.54426e-010 -2.3298e-010 1.04885e-009 9.58474e-010 -1.35773e-010 6.06057e-010 5.54433e-010 -7.73091 5.47488 -0.417314 -1.35767e-010 6.06058e-010 5.5442e-010 -2.90554 0.965183 -0.102902 -1.35776e-010 6.06058e-010 5.54426e-010 -10.2786 0.731801 -0.0259123 -1.35762e-010 6.0606e-010 5.54419e-010 -2.22167 -0.733487 0.20892 -2.03217e-016 0 -3.88251e-019 0.12984 -6.26927 12.3193 0.00213071 10.7061 0.158267 -1.87513 -4.43568 -10.5885 2.03217e-016 0 3.88251e-019 -0.118104 -3.16685 -4.03041 0.00520473 5.65113 -0.0905551 1.65624 -2.97743 9.75411 
-3.00484 84.4852 -65.5167 0.673724 2.01152 -6.46454 -2.4587 1.68417 0.960315 -0.288074 -2.88395 0.281414 -7.82809 4.75608 -5.33288 10.5332 -6.42338 -8.43208 -0 0 0 -0 0 0 2.2828e-014 1.43829e-013 2.40875e-014 63.3583 20.9074 -3.96965 -13.5494 -7.23676 23.7852 -0.120603 11.1332 1.57982 -3.23953e-010 1.12094e-009 -1.12143e-009 -5.73392e-010 1.9483e-009 -1.93559e-009 -3.23949e-010 1.12094e-009 -1.12144e-009 7.73091 5.47488 0.417314 -3.23955e-010 1.12093e-009 -1.12143e-009 2.90554 0.965183 0.102902 -3.23945e-010 1.12093e-009 -1.12143e-009 10.2786 0.731801 0.0259123 -3.23955e-010 1.12093e-009 -1.12142e-009 2.22167 -0.733487 -0.20892 2.2725e-014 1.43832e-013 2.38728e-014 -64.141 7.01113 5.41128 12.0098 -5.94908 -21.0173 0.000119042 0.35204 -0.0494765 -1.34339e-010 9.5738e-010 7.67222e-010 -2.29783e-010 1.65693e-009 1.32617e-009 -1.34341e-010 9.57384e-010 7.67226e-010 -7.73091 5.47488 -0.417314 -1.34335e-010 9.57385e-010 7.67213e-010 -2.90554 0.965183 -0.102902 -1.34345e-010 9.57386e-010 7.6722e-010 -10.2786 0.731801 -0.0259123 -1.3433e-010 9.57387e-010 7.67208e-010 -2.22167 -0.733487 0.20892 -2.03217e-016 0 -3.88251e-019 0.00477463 -6.90875 18.0265 -0.0119206 14.366 0.237715 -3.28585 -7.15861 -15.5619 2.03217e-016 0 3.88251e-019 -0.189607 -3.54818 -5.88837 0.0170078 8.86122 -0.165379 2.95245 -5.90037 14.3404 
-3.01075 84.4863 -65.5154 0.981581 2.44408 -7.88058 -3.1334 2.03864 1.17001 -0.384221 -3.51182 0.337003 -9.41784 5.7905 -6.50845 12.5711 -7.76974 -10.3082 -0 0 0 -0 0 0 2.78811e-014 1.64989e-013 2.48481e-015 77.6596 25.4912 -4.98924 -15.73 -8.43881 29.1047 -0.230048 13.5337 1.93859 -2.33438e-010 1.12582e-009 -1.27182e-009 -4.18823e-010 1.9588e-009 -2.19651e-009 -2.33436e-010 1.12582e-009 -1.27183e-009 7.73091 5.47488 0.417314 -2.33441e-010 1.12582e-009 -1.27182e-009 2.90554 0.965183 0.102902 -2.3343e-010 1.12582e-009 -1.27182e-009 10.2786 0.731801 0.0259123 -2.3344e-010 1.12582e-009 -1.27181e-009 2.22167 -0.733487 -0.20892 2.77804e-014 1.64993e-013 2.28602e-015 -78.3552 8.56952 6.59264 14.0626 -7.00507 -25.6801 0.000231364 0.434331 -0.0610425 -6.99325e-012 1.46991e-009 7.64726e-010 -9.17789e-012 2.54423e-009 1.32108e-009 -6.99444e-012 1.46991e-009 7.64729e-010 -7.73091 5.47488 -0.417314 -6.98907e-012 1.46991e-009 7.64717e-010 -2.90554 0.965183 -0.102902 -6.99933e-012 1.46991e-009 7.64724e-010 -10.2786 0.731801 -0.0259123 -6.9839e-012 1.46992e-009 7.6471e-010 -2.22167 -0.733487 0.20892 -2.03217e-016 0 -3.88251e-019 -0.00437633 -7.27757 22.0085 -0.0278928 16.9112 0.295308 -4.55356 -8.95179 -19.0786 2.03217e-016 0 3.88251e-019 -0.255858 -3.81008 -7.17851 0.0300603 11.1002 -0.218621 4.13423 -7.85017 17.5758 
-3.0247 84.4871 -65.5124 1.11269 2.61116 -8.42749 -3.39955 2.1484 1.25762 -0.424322 -3.75391 0.358151 -10.014 6.20445 -6.96351 13.3151 -8.24948 -11.044 -0 0 0 -0 0 0 2.77281e-014 1.54555e-013 -8.14978e-014 83.2958 27.3425 -5.38562 -16.5232 -8.85733 31.2151 -0.278485 14.4016 2.07107 1.93635e-010 5.28936e-010 -1.15237e-009 3.2063e-010 9.27857e-010 -1.99469e-009 1.93637e-010 5.28937e-010 -1.15238e-009 7.73091 5.47488 0.417314 1.93632e-010 5.28934e-010 -1.15236e-009 2.90554 0.965183 0.102902 1.93642e-010 5.28934e-010 -1.15237e-009 10.2786 0.731801 0.0259123 1.93634e-010 5.28935e-010 -1.15235e-009 2.22167 -0.733487 -0.20892 2.76352e-014 1.54557e-013 -8.16683e-014 -83.9086 9.25482 7.01079 14.8138 -7.37978 -27.5096 0.000296804 0.47712 -0.0670564 4.17002e-010 2.5728e-009 3.34009e-010 7.23928e-010 4.45382e-009 5.74151e-010 4.17001e-010 2.57281e-009 3.34012e-010 -7.73091 5.47488 -0.417314 4.17006e-010 2.57281e-009 3.34e-010 -2.90554 0.965183 -0.102902 4.16996e-010 2.57281e-009 3.34008e-010 -10.2786 0.731801 -0.0259123 4.17011e-010 2.57281e-009 3.33995e-010 -2.22167 -0.733487 0.20892 -2.03217e-016 0 -3.88251e-019 -0.00348614 -7.38777 23.556 -0.0355086 17.8937 0.318795 -5.11209 -9.63027 -20.4621 2.03217e-016 0 3.88251e-019 -0.288843 -3.91158 -7.66822 0.0358508 11.9806 -0.23986 4.65493 -8.59401 18.8335 
-3.03156 84.4849 -65.5162 1.10667 2.59077 -8.35296 -3.37255 2.0835 1.25794 -0.424967 -3.72038 0.354661 -9.92229 6.17863 -6.90081 13.1804 -8.12232 -10.9565 -0 0 0 -0 0 0 2.38427e-014 1.2157e-013 -2.08711e-013 82.6494 27.2509 -5.28245 -16.4515 -8.82595 31.0126 -0.267827 14.1757 2.03683 8.54941e-010 -4.89615e-010 -8.40607e-010 1.46719e-009 -8.32871e-010 -1.46303e-009 8.54941e-010 -4.89613e-010 -8.40614e-010 7.73091 5.47488 0.417314 8.54936e-010 -4.89615e-010 -8.40597e-010 2.90554 0.965183 0.102902 8.54947e-010 -4.89615e-010 -8.40602e-010 10.2786 0.731801 0.0259123 8.54939e-010 -4.89613e-010 -8.40593e-010 2.22167 -0.733487 -0.20892 2.37616e-014 1.21567e-013 -2.08845e-013 -83.2424 9.32154 6.87656 14.7294 -7.33741 -27.3013 0.000312689 0.491625 -0.0690951 1.04716e-009 4.08003e-009 -3.96541e-010 1.8132e-009 7.06354e-009 -6.9219e-010 1.04716e-009 4.08003e-009 -3.96537e-010 -7.73091 5.47488 -0.417314 1.04716e-009 4.08004e-009 -3.9655e-010 -2.90554 0.965183 -0.102902 1.04715e-009 4.08004e-009 -3.96541e-010 -10.2786 0.731801 -0.0259123 1.04716e-009 4.08004e-009 -3.96551e-010 -2.22167 -0.733487 0.20892 -2.03217e-016 0 -3.88251e-019 -0.0265173 -7.34512 23.3613 -0.0344286 17.7599 0.316866 -5.04821 -9.5672 -20.2965 2.03217e-016 0 3.88251e-019 -0.291992 -3.90017 -7.5859 0.0343045 11.8905 -0.237681 4.58908 -8.52303 18.6546 
-3.01581 84.4853 -65.5116 1.045 2.49509 -8.03054 -3.22827 1.95252 1.22231 -0.408594 -3.57437 0.341944 -9.56029 5.97288 -6.63184 12.6962 -7.76267 -10.5391 -0 0 0 -0 0 0 1.80016e-014 8.01301e-014 -3.08661e-013 79.4931 26.3763 -4.97898 -16.035 -8.6156 29.8855 -0.234967 13.5248 1.9381 1.40273e-009 -1.40229e-009 -4.66846e-010 2.41831e-009 -2.41179e-009 -8.22892e-010 1.40273e-009 -1.40229e-009 -4.66849e-010 7.73091 5.47488 0.417314 1.40272e-009 -1.40229e-009 -4.66833e-010 2.90554 0.965183 0.102902 1.40273e-009 -1.40229e-009 -4.66838e-010 10.2786 0.731801 0.0259123 1.40273e-009 -1.40228e-009 -4.66831e-010 2.22167 -0.733487 -0.20892 1.79331e-014 8.01238e-014 -3.08765e-013 -80.0893 9.13235 6.51835 14.3096 -7.12719 -26.2762 0.000303619 0.492585 -0.06923 1.56719e-009 5.16548e-009 -1.04412e-009 2.71192e-009 8.94311e-009 -1.81438e-009 1.56719e-009 5.16549e-009 -1.04412e-009 -7.73091 5.47488 -0.417314 1.56719e-009 5.16549e-009 -1.04413e-009 -2.90554 0.965183 -0.102902 1.56718e-009 5.16549e-009 -1.04412e-009 -10.2786 0.731801 -0.0259123 1.56719e-009 5.16549e-009 -1.04413e-009 -2.22167 -0.733487 0.20892 -2.03217e-016 0 -3.88251e-019 -0.0544449 -7.24359 22.4734 -0.0296737 17.1836 0.304613 -4.7359 -9.20568 -19.5146 2.03217e-016 0 3.88251e-019 -0.28243 -3.84306 -7.28064 0.0298397 11.4108 -0.226121 4.29067 -8.12547 17.9074 
